HIERARCHY
ROOT hip
{
  OFFSET 0 0 0
  CHANNELS 6 Xposition Yposition Zposition Zrotation Yrotation Xrotation
  JOINT abdomen
  {
    OFFSET 0 20.6881 -0.73152
    CHANNELS 3 Zrotation Xrotation Yrotation
    JOINT chest
    {
      OFFSET 0 11.7043 -0.48768
      CHANNELS 3 Zrotation Xrotation Yrotation
      JOINT neck
      {
        OFFSET 0 22.1894 -2.19456
        CHANNELS 3 Zrotation Xrotation Yrotation
        JOINT head
        {
          OFFSET -0.24384 7.07133 1.2192
          CHANNELS 3 Zrotation Xrotation Yrotation
          JOINT leftEye
          {
            OFFSET 4.14528 8.04674 8.04672
            CHANNELS 3 Zrotation Xrotation Yrotation
            End Site
            {
              OFFSET 1 0 0
            }
          }
          JOINT rightEye
          {
            OFFSET -3.6576 8.04674 8.04672
            CHANNELS 3 Zrotation Xrotation Yrotation
            End Site
            {
              OFFSET 1 0 0
            }
          }
        }
      }
      JOINT rCollar
      {
        OFFSET -2.68224 19.2634 -4.8768
        CHANNELS 3 Zrotation Xrotation Yrotation
        JOINT rShldr
        {
          OFFSET -8.77824 -1.95073 1.46304
          CHANNELS 3 Zrotation Xrotation Yrotation
          JOINT rForeArm
          {
            OFFSET -28.1742 -1.7115 0.48768
            CHANNELS 3 Zrotation Xrotation Yrotation
            JOINT rHand
            {
              OFFSET -22.5879 0.773209 7.07136
              CHANNELS 3 Zrotation Xrotation Yrotation
              JOINT rThumb1
              {
                OFFSET -1.2192 -0.487915 3.41376
                CHANNELS 3 Zrotation Xrotation Yrotation
                JOINT rThumb2
                {
                  OFFSET -3.37035 -0.52449 3.41376
                  CHANNELS 3 Zrotation Xrotation Yrotation
                  End Site
                  {
                    OFFSET -1.78271 -1.18214 1.43049
                  }
                }
              }
              JOINT rIndex1
              {
                OFFSET -7.75947 0.938293 5.60832
                CHANNELS 3 Zrotation Xrotation Yrotation
                JOINT rIndex2
                {
                  OFFSET -2.54057 -0.884171 1.56538
                  CHANNELS 3 Zrotation Xrotation Yrotation
                  End Site
                  {
                    OFFSET -1.62519 -0.234802 1.16502
                  }
                }
              }
              JOINT rMid1
              {
                OFFSET -8.24714 1.18213 3.41376
                CHANNELS 3 Zrotation Xrotation Yrotation
                JOINT rMid2
                {
                  OFFSET -3.10165 -0.590103 1.0647
                  CHANNELS 3 Zrotation Xrotation Yrotation
                  End Site
                  {
                    OFFSET -2.48547 -0.328903 0.83742
                  }
                }
              }
              JOINT rRing1
              {
                OFFSET -8.82822 0.546677 1.51678
                CHANNELS 3 Zrotation Xrotation Yrotation
                JOINT rRing2
                {
                  OFFSET -2.60934 -0.819778 -0.0198488
                  CHANNELS 3 Zrotation Xrotation Yrotation
                  End Site
                  {
                    OFFSET -2.33842 -0.294052 0.168128
                  }
                }
              }
              JOINT rPinky1
              {
                OFFSET -8.27202 -0.0477905 -0.4584
                CHANNELS 3 Zrotation Xrotation Yrotation
                JOINT rPinky2
                {
                  OFFSET -1.82734 -0.647385 -0.700984
                  CHANNELS 3 Zrotation Xrotation Yrotation
                  End Site
                  {
                    OFFSET -1.69225 -0.51767 -0.607171
                  }
                }
              }
            }
          }
        }
      }
      JOINT lCollar
      {
        OFFSET 2.68224 19.2634 -4.8768
        CHANNELS 3 Zrotation Xrotation Yrotation
        JOINT lShldr
        {
          OFFSET 8.77824 -1.95073 1.46304
          CHANNELS 3 Zrotation Xrotation Yrotation
          JOINT lForeArm
          {
            OFFSET 28.1742 -1.7115 0.48768
            CHANNELS 3 Zrotation Xrotation Yrotation
            JOINT lHand
            {
              OFFSET 22.5879 0.773209 7.07136
              CHANNELS 3 Zrotation Xrotation Yrotation
              JOINT lThumb1
              {
                OFFSET 1.2192 -0.487915 3.41376
                CHANNELS 3 Zrotation Xrotation Yrotation
                JOINT lThumb2
                {
                  OFFSET 3.37035 -0.52449 3.41376
                  CHANNELS 3 Zrotation Xrotation Yrotation
                  End Site
                  {
                    OFFSET 1.78271 -1.18214 1.43049
                  }
                }
              }
              JOINT lIndex1
              {
                OFFSET 7.75947 0.938293 5.60832
                CHANNELS 3 Zrotation Xrotation Yrotation
                JOINT lIndex2
                {
                  OFFSET 2.54057 -0.884171 1.56538
                  CHANNELS 3 Zrotation Xrotation Yrotation
                  End Site
                  {
                    OFFSET 1.62519 -0.234802 1.16502
                  }
                }
              }
              JOINT lMid1
              {
                OFFSET 8.24714 1.18213 3.41376
                CHANNELS 3 Zrotation Xrotation Yrotation
                JOINT lMid2
                {
                  OFFSET 3.10165 -0.590103 1.0647
                  CHANNELS 3 Zrotation Xrotation Yrotation
                  End Site
                  {
                    OFFSET 2.48547 -0.328903 0.83742
                  }
                }
              }
              JOINT lRing1
              {
                OFFSET 8.82822 0.546677 1.51678
                CHANNELS 3 Zrotation Xrotation Yrotation
                JOINT lRing2
                {
                  OFFSET 2.60934 -0.819778 -0.0198488
                  CHANNELS 3 Zrotation Xrotation Yrotation
                  End Site
                  {
                    OFFSET 2.33842 -0.294052 0.168128
                  }
                }
              }
              JOINT lPinky1
              {
                OFFSET 8.27202 -0.0477905 -0.4584
                CHANNELS 3 Zrotation Xrotation Yrotation
                JOINT lPinky2
                {
                  OFFSET 1.82734 -0.647385 -0.700984
                  CHANNELS 3 Zrotation Xrotation Yrotation
                  End Site
                  {
                    OFFSET 1.69225 -0.51767 -0.607171
                  }
                }
              }
            }
          }
        }
      }
    }
  }
  JOINT rButtock
  {
    OFFSET -8.77824 4.35084 1.2192
    CHANNELS 3 Zrotation Xrotation Yrotation
    JOINT rThigh
    {
      OFFSET 0 -1.70687 -2.19456
      CHANNELS 3 Zrotation Xrotation Yrotation
      JOINT rShin
      {
        OFFSET 0 -36.8199 0.73152
        CHANNELS 3 Zrotation Xrotation Yrotation
        JOINT rFoot
        {
          OFFSET 0.73152 -45.1104 -5.12064
          CHANNELS 3 Zrotation Xrotation Yrotation
          End Site
          {
            OFFSET -1.1221 -3.69964 12.103
          }
        }
      }
    }
  }
  JOINT lButtock
  {
    OFFSET 8.77824 4.35084 1.2192
    CHANNELS 3 Zrotation Xrotation Yrotation
    JOINT lThigh
    {
      OFFSET 0 -1.70687 -2.19456
      CHANNELS 3 Zrotation Xrotation Yrotation
      JOINT lShin
      {
        OFFSET 0 -36.8199 0.73152
        CHANNELS 3 Zrotation Xrotation Yrotation
        JOINT lFoot
        {
          OFFSET -0.73152 -45.1104 -5.12064
          CHANNELS 3 Zrotation Xrotation Yrotation
          End Site
          {
            OFFSET 1.1221 -3.69964 12.103
          }
        }
      }
    }
  }
}
MOTION
Frames:	5
Frame Time:	0.00833333
4.999273 85.93448 -14.300569 -1.370741 75.23878 6.564297 -5.402868 -3.2540035 12.066709 -1.4809073 -6.720048 3.675127 -5.2022686 17.069319 -0.41487977 24.54156 -9.272739 1.56807 -0.015641548 -0.006114247 -0.037865385 0.01113239 -0.035559367 -0.0013935433 0.03598866 0.023453949 0.015842982 25.96965 -27.153183 67.08463 -28.135096 -31.839191 70.36874 -2.5268576 -40.83 -6.8493958 0.008979269 -0.00010963392 -0.019240825 0.013437319 0.021519937 -0.009125494 -0.02095558 -0.008420794 -0.0071706395 7.7637725 5.4802723 0.41637322 -0.0032787996 0.014329049 0.018194439 2.9448946 0.96807224 0.050095603 0.023716843 0.023716977 0.0071425634 10.275486 0.75498337 0.027503911 0.019855246 0.024767525 -0.024636308 2.2612867 -0.74222344 -0.14904094 -0.019856203 0.036863174 0.03388578 -101.21158 59.6107 35.089153 24.359451 -49.034233 -102.36907 0.23024955 13.041948 -1.906772 0.026733851 0.017163405 0.0035970754 -0.028388456 0.0040915506 -0.05488124 -0.004491226 0.01623223 0.0054174056 -7.7352095 5.5176826 -0.41658553 -0.0044235666 0.041219912 0.007409192 -2.9211755 0.97919446 -0.049489595 0.02005778 0.017871812 0.016400328 -10.310552 0.7536824 -0.01981723 -0.020969795 -0.003937185 -0.024102284 -2.2579775 -0.74615943 0.20972215 0.015435317 -0.0130507285 0.012761745 -10.371953 -31.358664 -7.0609365 -0.26856464 38.225536 0.5326276 -0.5416419 -2.4307902 -7.8242364 0.015532865 0.019044148 -0.027316114 -2.8727934 -21.311947 -4.5061793 0.31932583 42.66209 -0.7421147 1.5412959 -1.7618555 3.8190596
0.21907836 85.18014 -15.682418 -0.29156414 39.68654 6.7127466 -7.08532 -4.8676248 13.718718 -2.9244895 -6.3172016 4.112251 -4.7830386 16.804419 3.7611468 26.172615 -5.0018277 9.489561 -0.014545169 -0.019319706 -0.010898332 0.034865648 -0.016315097 0.011934981 0.01892549 0.007633598 0.015322131 22.585243 -31.57823 68.38318 -28.347685 -34.341404 74.43624 -2.3234584 -39.36826 -6.555326 -0.012151049 0.0063625416 -0.019517548 0.027479347 0.01647019 0.0006882986 -0.043571483 0.014946611 -0.013664001 7.7661347 5.5037384 0.4336247 -0.021954877 0.027684717 0.0084747495 2.9085422 1.028688 0.08808437 0.01622575 0.01954922 -0.01590885 10.2752 0.725171 0.029435446 0.0033037993 0.025640966 -0.027246417 2.2430444 -0.7659319 -0.15783338 -0.017442008 0.03075328 0.027275546 -98.31864 62.199245 31.391617 24.85187 -48.284702 -100.65343 0.20539136 13.211898 -1.9314355 0.027272383 0.012719772 -0.028464468 -0.030239271 0.009967433 -0.018139595 -0.0064108865 0.010790221 0.023325425 -7.7339644 5.508434 -0.4254207 -0.0094998805 0.041566536 -0.0024469667 -2.919063 0.99702466 -0.053319782 0.0030820365 0.020759884 0.0049295365 -10.31671 0.77679825 -0.034601208 -0.027181616 0.0011099122 -0.022961669 -2.2308357 -0.7366556 0.20531276 0.025909742 -0.010476624 0.028935248 -13.4312105 -30.46333 -18.04626 -0.3857286 42.090645 0.6623834 -2.9377801 -4.3977747 -16.27132 0.014432117 0.024792025 -0.044321354 0.41783506 -23.022564 15.938194 0.3902216 45.703945 -0.8209218 2.495956 -5.613518 11.051771
-4.4533143 84.291824 -17.587072 1.9967351 11.210725 7.468651 -9.4636755 -7.0403543 12.1007185 -4.0739226 -6.482551 3.612089 -5.2191844 16.058199 6.8732543 26.520792 -1.535072 14.937684 -0.009708704 -0.01874865 -0.00084197044 0.053765588 -0.023176303 0.002376908 0.009706651 0.00937001 0.012336924 19.500154 -34.402935 65.91981 -28.3256 -37.775143 80.1285 -2.0600922 -37.464348 -6.1040583 -0.03345586 0.006571859 -0.011740375 0.021539152 0.012150199 -0.008056639 -0.030348856 0.021773838 -0.011818964 7.7478237 5.4997754 0.435917 -0.023240507 0.03250814 0.014795523 2.8789883 1.0405043 0.17062834 0.011371428 0.0045027677 -0.028490499 10.276391 0.70889676 0.014426708 -0.0023702283 0.007482843 -0.025665717 2.2257106 -0.7360256 -0.13130413 -0.018345334 0.029314317 0.0032615112 -96.24204 62.948624 27.375109 25.596882 -47.095585 -97.94243 0.17549941 13.314046 -1.9388567 -0.016382357 0.016891671 -0.04785927 -0.025781777 -0.008761089 0.00024322697 -0.0076759034 0.0063405386 0.020820169 -7.744876 5.496345 -0.44521564 0.0024336255 0.02422893 0.009306696 -2.9221299 1.0062492 -0.07903554 -0.002189152 0.014525329 -0.0038122258 -10.3099165 0.7798829 -0.018566849 -0.03394373 -0.008174033 -0.010727471 -2.236922 -0.73142016 0.19942062 0.020426068 -0.01114472 0.014347401 -15.791772 -30.505573 -22.858608 -0.55233127 47.651787 0.9557213 -5.911963 -6.8483615 -24.753578 0.011832894 0.035541095 -0.04012851 4.119843 -25.07332 30.57029 0.4841891 49.43856 -0.9400504 3.8551443 -7.0582843 16.819242
-9.150489 84.26555 -20.35995 2.1385136 -13.88592 7.2085447 -10.21874 -9.313042 8.774367 -4.4283824 -7.1742997 2.6644173 -5.807071 15.331462 7.8044724 25.24692 -0.7604989 16.47025 -0.0033472818 -0.012968153 -0.0058097313 0.04650362 -0.024108723 -0.0070248106 0.0131773455 0.00918252 0.00430815 22.536015 -34.179367 62.96734 -27.84994 -41.112877 86.02173 -2.359806 -39.491116 -6.560341 -0.03598057 0.010528221 -0.0065832287 0.012609789 0.008282171 -0.01730817 -0.01734567 0.014701378 0.0066658743 7.7170086 5.5011387 0.42471725 -0.01481574 0.041863848 0.016634805 2.8599818 1.0227404 0.18865855 0.015072512 0.010037297 -0.03480133 10.281492 0.7114092 0.008076244 -0.0027252932 -0.003021522 -0.02095591 2.1997347 -0.7041062 -0.1241021 -0.009666303 0.038726404 -0.019657137 -97.1331 62.289013 27.274153 25.970774 -46.372623 -96.35524 0.16321374 13.518801 -1.9783702 -0.06416119 0.042087596 -0.037700977 -0.018831719 -0.022954186 -7.3416006e-05 -0.018698815 -0.0042441916 0.017342271 -7.7659364 5.4977083 -0.45212638 0.02664144 0.00018591748 0.02458592 -2.9252868 0.9905458 -0.08725892 0.0047193565 0.007378289 -0.0053551556 -10.291079 0.76629746 0.005118053 -0.038348302 -0.013749143 -0.010427182 -2.2384658 -0.7237841 0.19986391 0.026541393 -0.01445228 0.0017204563 -13.984849 -29.824186 -25.349577 -0.5495955 47.79352 0.9573297 -7.465633 -9.206734 -26.34966 0.012608647 0.023514375 -0.024591314 6.923092 -24.432018 34.846085 0.59134537 50.96743 -1.0012946 4.8614316 -4.1443334 25.236197
-13.283247 84.25241 -23.570747 -0.052373074 -43.848663 7.2277536 -9.292016 -11.187463 5.053089 -3.489533 -7.5268126 1.5505759 -6.656805 14.75879 6.3186245 24.497124 -2.479427 12.96902 0.018729769 -0.022063265 -0.009839451 0.035431843 -0.011361892 -0.007234177 0.02168692 0.0002776831 0.0007159651 34.558735 -31.95052 62.428185 -27.145668 -43.48275 90.54201 -3.6728756 -46.698925 -8.459294 -0.028417198 0.0026441335 -0.013374233 0.0025860623 0.0040466185 -0.011242147 -0.02137813 -0.001077339 0.01104565 7.7006407 5.5006175 0.40749094 -0.007824908 0.03317856 0.006360678 2.8678117 0.99249834 0.18472582 0.008905643 0.01995852 -0.030416958 10.2794 0.7305303 0.004683062 0.0011112373 -0.015117628 -0.018398903 2.2064762 -0.70106757 -0.14685683 0.010881887 0.066552415 -0.017369684 -100.676445 60.00172 30.10557 26.22252 -45.808937 -95.18886 0.22415242 15.244404 -2.2581189 -0.08516142 0.05357687 0.0060308925 -0.019514205 -0.013506888 0.0046117543 -0.027882557 -0.0001668959 0.005622348 -7.7654696 5.507294 -0.44016677 0.033103872 -0.0107902605 0.035012186 -2.933596 0.97581947 -0.07399734 0.003458818 -0.0061609293 0.0019071847 -10.284403 0.74219096 0.01918018 -0.051355675 -0.013886962 -0.016577806 -2.2403293 -0.71738404 0.21496429 0.025394648 -0.021063387 0.004951559 -7.237725 -28.602285 -22.84152 -0.48576245 43.6502 0.6614852 -4.5408506 -8.32806 -16.517006 0.025227277 0.013961368 0.006326418 9.757676 -21.979033 30.908117 0.75459313 52.640987 -0.99075335 2.2493804 4.179775 30.427084
